name Run_40002_IK.mot
datacolumns 164
datarows 4
range 2.39 2.42
endheader
time	         pelvis_tilt	         pelvis_list	     pelvis_rotation	           pelvis_tx	           pelvis_ty	           pelvis_tz	       hip_flexion_r	     hip_adduction_r	      hip_rotation_r	        knee_angle_r	       ankle_angle_r	       hip_flexion_l	     hip_adduction_l	      hip_rotation_l	        knee_angle_l	       ankle_angle_l	    lumbar_extension	      lumbar_bending	     lumbar_rotation	          arm_flex_r	           arm_add_r	           arm_rot_r	        elbow_flex_r	           pro_sup_r	          arm_flex_l	           arm_add_l	           arm_rot_l	        elbow_flex_l	           pro_sup_l	    subtalar_angle_r	         mtp_angle_r	    subtalar_angle_l	         mtp_angle_l	        wrist_flex_r	         wrist_dev_r	        wrist_flex_l	         wrist_dev_l	             LASI_tx	             LASI_ty	             LASI_tz	             RASI_tx	             RASI_ty	             RASI_tz	             LPSI_tx	             LPSI_ty	             LPSI_tz	             RPSI_tx	             RPSI_ty	             RPSI_tz	             RTH1_tx	             RTH1_ty	             RTH1_tz	             RTH2_tx	             RTH2_ty	             RTH2_tz	             RTH3_tx	             RTH3_ty	             RTH3_tz	             LTH1_tx	             LTH1_ty	             LTH1_tz	             LTH2_tx	             LTH2_ty	             LTH2_tz	             LTH3_tx	             LTH3_ty	             LTH3_tz	             RTB1_tx	             RTB1_ty	             RTB1_tz	             RTB2_tx	             RTB2_ty	             RTB2_tz	             RTB3_tx	             RTB3_ty	             RTB3_tz	             LTB1_tx	             LTB1_ty	             LTB1_tz	             LTB2_tx	             LTB2_ty	             LTB2_tz	             LTB3_tx	             LTB3_ty	             LTB3_tz	             RCAL_tx	             RCAL_ty	             RCAL_tz	             RTOE_tx	             RTOE_ty	             RTOE_tz	             RMT5_tx	             RMT5_ty	             RMT5_tz	             LCAL_tx	             LCAL_ty	             LCAL_tz	             LTOE_tx	             LTOE_ty	             LTOE_tz	             LMT5_tx	             LMT5_ty	             LMT5_tz	             LACR_tx	             LACR_ty	             LACR_tz	             RACR_tx	             RACR_ty	             RACR_tz	             CLAV_tx	             CLAV_ty	             CLAV_tz	               C7_tx	               C7_ty	               C7_tz	             RUA1_tx	             RUA1_ty	             RUA1_tz	             RUA2_tx	             RUA2_ty	             RUA2_tz	             RUA3_tx	             RUA3_ty	             RUA3_tz	             RLEL_tx	             RLEL_ty	             RLEL_tz	             RMEL_tx	             RMEL_ty	             RMEL_tz	             LUA1_tx	             LUA1_ty	             LUA1_tz	             LUA2_tx	             LUA2_ty	             LUA2_tz	             LUA3_tx	             LUA3_ty	             LUA3_tz	             LLEL_tx	             LLEL_ty	             LLEL_tz	             LMEL_tx	             LMEL_ty	             LMEL_tz	      RFAsuperior_tx	      RFAsuperior_ty	      RFAsuperior_tz	        RFAradius_tx	        RFAradius_ty	        RFAradius_tz	          RFAulna_tx	          RFAulna_ty	          RFAulna_tz	      LFAsuperior_tx	      LFAsuperior_ty	      LFAsuperior_tz	        LFAradius_tx	        LFAradius_ty	        LFAradius_tz	          LFAulna_tx	          LFAulna_ty	          LFAulna_tz	
2.39	        -11.74695584	         -1.55378272	         -3.01617930	          0.95292873	          0.97069999	         -0.35904461	         16.16390983	          6.03765270	         -0.68140490	        -38.42877170	         24.58050241	         49.97009416	         -0.56561048	          0.64556190	       -102.17998807	          4.55314922	         -1.87948530	          6.35647160	          9.26591436	        -16.00655988	        -22.80160655	         -9.91824368	        107.06215671	        105.70766102	        -38.95239825	        -19.12978242	          0.43567764	        106.91832540	        103.35305166	          0.00000000	          0.00000000	          0.00000000	          0.00000000	          0.00000000	          0.00000000	          0.00000000	          0.00000000	          0.97017605	          1.01462024	         -0.50303604	          0.96150668	          1.00904176	         -0.22764709	          0.81887491	          1.07067332	         -0.42216872	          0.80832788	          1.06861002	         -0.31004897	          0.87603979	          0.89391243	         -0.18011661	          0.82969129	          0.74600916	         -0.21149189	          0.87841665	          0.59190445	         -0.22528247	          0.95175904	          0.88629404	         -0.53213086	          0.96303549	          0.73278779	         -0.50756825	          1.08267191	          0.64602977	         -0.50294352	          0.86925352	          0.34118020	         -0.31277748	          0.77944462	          0.33186794	         -0.24381281	          0.74272057	          0.19567406	         -0.33134930	          1.08587963	          0.45963762	         -0.44023941	          0.94973727	          0.48263371	         -0.49752020	          0.88320330	          0.38049626	         -0.44600707	          0.56420874	          0.12617107	         -0.33690882	          0.79839866	          0.06948741	         -0.36510501	          0.74646365	          0.04971106	         -0.26887811	          0.69968942	          0.42342285	         -0.42299120	          0.80899104	          0.21220556	         -0.42637284	          0.75212121	          0.23709972	         -0.52009190	          0.95047611	          1.50490631	         -0.49666434	          0.98583114	          1.46205928	         -0.17516704	          1.02742983	          1.43852742	         -0.30931179	          0.90816265	          1.51515343	         -0.33431706	          0.89458309	          1.35562714	         -0.10323422	          0.94155964	          1.29751056	         -0.08685034	          0.88506443	          1.21650422	         -0.04043683	          0.86358843	          1.15485163	         -0.01192522	          0.85644200	          1.12876230	         -0.09882339	          0.83319334	          1.43664738	         -0.54441123	          0.84249988	          1.36617575	         -0.59263872	          0.75546420	          1.32985687	         -0.61975582	          0.72079043	          1.27463804	         -0.64913223	          0.69539997	          1.25187571	         -0.56492502	          0.96463772	          1.11302290	         -0.03074732	          1.10466832	          1.10733900	         -0.14510705	          1.09710206	          1.05216613	         -0.10401796	          0.76477600	          1.19899339	         -0.64630406	          0.91322774	          1.12641784	         -0.55118724	          0.88388213	          1.07485852	         -0.59161644	
2.4	        -12.02288839	         -1.00057378	         -2.38356654	          0.95580170	          0.97705831	         -0.35936120	         12.29146491	          5.22771960	         -0.43184480	        -35.27364925	         21.54208612	         51.79110071	          0.17499354	          0.46935661	        -98.16183724	          5.28368902	         -0.94962810	          5.50863160	          9.74008525	        -15.59063179	        -22.13676922	         -9.93074183	        109.64500846	        106.43389755	        -41.29509066	        -19.91223563	         -0.71137935	        109.15899402	        104.43591021	          0.00000000	          0.00000000	          0.00000000	          0.00000000	          0.00000000	          0.00000000	          0.00000000	          0.00000000	          0.97235664	          1.02155886	         -0.50135615	          0.96577691	          1.01323232	         -0.22903500	          0.82101668	          1.07758647	         -0.42066097	          0.81151875	          1.07465449	         -0.30831864	          0.87712073	          0.89928818	         -0.18099868	          0.82203043	          0.75411746	         -0.21053914	          0.86011501	          0.59765736	         -0.22564467	          0.95395311	          0.89691636	         -0.53381701	          0.96891539	          0.74275980	         -0.50691725	          1.09152131	          0.66077528	         -0.50273874	          0.83801239	          0.34637415	         -0.31188689	          0.74832735	          0.33947851	         -0.24329682	          0.70838392	          0.20276505	         -0.32933026	          1.10660713	          0.47055236	         -0.44048382	          0.96819249	          0.48064823	         -0.49586407	          0.91162030	          0.37170435	         -0.44409434	          0.53029202	          0.13958730	         -0.33375578	          0.75858394	          0.06903186	         -0.36535832	          0.70648341	          0.05059761	         -0.26912018	          0.72524365	          0.39583467	         -0.42011246	          0.85713068	          0.19785491	         -0.42501717	          0.79653392	          0.21602580	         -0.51764554	          0.94684589	          1.51310847	         -0.49670676	          0.98811783	          1.47020440	         -0.17676079	          1.02759976	          1.44646261	         -0.31194344	          0.90759876	          1.52188345	         -0.33432184	          0.89980550	          1.36244867	         -0.10339804	          0.94795069	          1.30479193	         -0.08871731	          0.89409406	          1.22241682	         -0.04203331	          0.87419582	          1.15981888	         -0.01408092	          0.86607975	          1.13484966	         -0.10138744	          0.82804286	          1.44856008	         -0.54198341	          0.83459209	          1.37842612	         -0.59204010	          0.74623770	          1.34435690	         -0.61793952	          0.70950600	          1.29054481	         -0.64688335	          0.68588997	          1.26680686	         -0.56213559	          0.97666544	          1.12432175	         -0.03626396	          1.11318373	          1.12874871	         -0.15409543	          1.11070963	          1.07277889	         -0.11373237	          0.75405124	          1.21595799	         -0.64514754	          0.90401437	          1.14362465	         -0.55334326	          0.87566950	          1.09213913	         -0.59437512	
2.41	        -12.24441724	         -0.44873510	         -1.58661513	          0.95929633	          0.98400322	         -0.35949560	          8.27472211	          4.42835268	         -0.35525170	        -31.80348744	         17.36607551	         53.13072314	          0.89369268	          0.14411954	        -93.58462876	          5.86271978	         -0.03626353	          4.57689267	          9.88953035	        -15.27224875	        -21.38202226	         -9.82117939	        112.24366028	        107.43524383	        -43.77424277	        -20.60223692	         -2.11548581	        111.38402210	        105.33790958	          0.00000000	          0.00000000	          0.00000000	          0.00000000	          0.00000000	          0.00000000	          0.00000000	          0.00000000	          0.97467048	          1.02894617	         -0.49929326	          0.97092212	          1.01790377	         -0.22977816	          0.82327848	          1.08496101	         -0.41871442	          0.81555579	          1.08116784	         -0.30635699	          0.88045345	          0.90498160	         -0.18220261	          0.81543660	          0.76347786	         -0.20952473	          0.84231498	          0.60567402	         -0.22577505	          0.95604702	          0.90809112	         -0.53547847	          0.97367757	          0.75310482	         -0.50586888	          1.09832232	          0.67492404	         -0.50224407	          0.80735494	          0.35416269	         -0.31036147	          0.71775557	          0.34964675	         -0.24220373	          0.67604545	          0.21246587	         -0.32766681	          1.12551258	          0.48104674	         -0.44168270	          0.98558786	          0.47784737	         -0.49342471	          0.94088137	          0.36279024	         -0.44179936	          0.49874333	          0.15542204	         -0.32986837	          0.71871012	          0.06839276	         -0.36465140	          0.66673785	          0.05178920	         -0.26881062	          0.75364228	          0.36726094	         -0.41510658	          0.90625159	          0.18499537	         -0.42409404	          0.84183130	          0.19651583	         -0.51493321	          0.94386374	          1.52174645	         -0.49686564	          0.99044590	          1.47923417	         -0.17839026	          1.02779150	          1.45513797	         -0.31459444	          0.90724379	          1.52937785	         -0.33433364	          0.90419388	          1.37015417	         -0.10413777	          0.95392467	          1.31299426	         -0.09072932	          0.90243561	          1.22951836	         -0.04371789	          0.88377691	          1.16606217	         -0.01640096	          0.87451775	          1.14218059	         -0.10408230	          0.82380311	          1.46093912	         -0.53979073	          0.82770087	          1.39091647	         -0.59114521	          0.73798829	          1.35928917	         -0.61583997	          0.69911053	          1.30675272	         -0.64407502	          0.67734753	          1.28225615	         -0.55901009	          0.98708431	          1.13639190	         -0.04160095	          1.11962053	          1.15091954	         -0.16284017	          1.12211602	          1.09461670	         -0.12310194	          0.74379736	          1.23279258	         -0.64359975	          0.89568934	          1.16114909	         -0.55520193	          0.86800438	          1.10990797	         -0.59682170	
2.42	        -12.36569731	          0.14071578	         -0.56854736	          0.96318238	          0.99135407	         -0.35962171	          4.14670510	          3.62244941	         -0.63003125	        -28.01087631	         12.16337297	         53.95818935	          1.69220776	         -0.34641523	        -88.48345878	          6.26171636	          0.75130637	          3.52330068	          9.70975736	        -15.06535128	        -20.61100920	         -9.54018499	        114.86656978	        108.58881138	        -46.28147687	        -21.22433761	         -3.58200651	        113.50432502	        105.54905502	          0.00000000	          0.00000000	          0.00000000	          0.00000000	          0.00000000	          0.00000000	          0.00000000	          0.00000000	          0.97656428	          1.03672906	         -0.49693809	          0.97685130	          1.02287927	         -0.23006282	          0.82513518	          1.09276330	         -0.41644468	          0.82033900	          1.08791890	         -0.30410350	          0.88587565	          0.91043424	         -0.18373229	          0.80962522	          0.77374757	         -0.20840909	          0.82490399	          0.61574771	         -0.22576233	          0.95780293	          0.91919328	         -0.53707202	          0.97745340	          0.76354151	         -0.50448724	          1.10323126	          0.68808347	         -0.50165196	          0.77820239	          0.36399595	         -0.30824531	          0.68870217	          0.36151142	         -0.24046305	          0.64697721	          0.22398775	         -0.32644174	          1.14245724	          0.49087263	         -0.44348560	          1.00202325	          0.47409776	         -0.49047796	          0.97091633	          0.35397709	         -0.43933443	          0.47055112	          0.17268844	         -0.32583067	          0.67992674	          0.06761202	         -0.36340590	          0.62807444	          0.05330485	         -0.26821421	          0.78491387	          0.33839369	         -0.40830859	          0.95596291	          0.17388253	         -0.42348083	          0.88778113	          0.17854943	         -0.51184736	          0.94133717	          1.53051981	         -0.49705385	          0.99297073	          1.48877649	         -0.18005521	          1.02809416	          1.46411432	         -0.31711137	          0.90707034	          1.53719007	         -0.33429019	          0.90832611	          1.37870025	         -0.10471192	          0.95957440	          1.32183778	         -0.09271030	          0.91006279	          1.23758685	         -0.04526066	          0.89246442	          1.17333156	         -0.01858373	          0.88164465	          1.15055284	         -0.10655188	          0.82021976	          1.47327140	         -0.53779493	          0.82176595	          1.40339016	         -0.59004678	          0.73075140	          1.37439583	         -0.61340003	          0.68979247	          1.32288587	         -0.64085179	          0.66979543	          1.29786482	         -0.55557555	          0.99614954	          1.14914937	         -0.04663188	          1.12415680	          1.17322711	         -0.17134898	          1.13134054	          1.11688829	         -0.13205576	          0.73434251	          1.24927162	         -0.64169644	          0.88830384	          1.17843120	         -0.55672862	          0.86064367	          1.12716871	         -0.59833675	
